<svg width="18" height="18" viewBox="0 0 18 18" fill="none" xmlns="http://www.w3.org/2000/svg">
<path opacity="0.2" d="M9 15.75C12.7279 15.75 15.75 12.7279 15.75 9C15.75 5.27208 12.7279 2.25 9 2.25C5.27208 2.25 2.25 5.27208 2.25 9C2.25 12.7279 5.27208 15.75 9 15.75Z" fill="#22C55E"/>
<path d="M9 5.0625V6.1875" stroke="#22C55E" stroke-width="1.5" stroke-linecap="round" stroke-linejoin="round"/>
<path d="M9 11.8125V12.9375" stroke="#22C55E" stroke-width="1.5" stroke-linecap="round" stroke-linejoin="round"/>
<path d="M9 15.75C12.7279 15.75 15.75 12.7279 15.75 9C15.75 5.27208 12.7279 2.25 9 2.25C5.27208 2.25 2.25 5.27208 2.25 9C2.25 12.7279 5.27208 15.75 9 15.75Z" stroke="#22C55E" stroke-width="1.5" stroke-linecap="round" stroke-linejoin="round"/>
<path d="M7.3125 11.8125H9.84375C10.2167 11.8125 10.5744 11.6643 10.8381 11.4006C11.1018 11.1369 11.25 10.7792 11.25 10.4062C11.25 10.0333 11.1018 9.6756 10.8381 9.41188C10.5744 9.14816 10.2167 9 9.84375 9H8.15625C7.78329 9 7.4256 8.85184 7.16188 8.58812C6.89816 8.3244 6.75 7.96671 6.75 7.59375C6.75 7.22079 6.89816 6.8631 7.16188 6.59938C7.4256 6.33566 7.78329 6.1875 8.15625 6.1875H10.6875" stroke="#22C55E" stroke-width="1.5" stroke-linecap="round" stroke-linejoin="round"/>
</svg>
