<svg width="383" height="100" viewBox="0 0 383 100" fill="none" xmlns="http://www.w3.org/2000/svg">
<path d="M61.2074 81.6788C59.9836 83.4813 58.9216 85.1812 57.7088 86.7657C57.331 87.2592 56.3935 87.8265 55.9846 87.6659C55.4804 87.4681 54.9853 86.5545 54.9646 85.9342C54.8623 82.8684 54.918 79.7973 54.918 76.4397C53.7447 76.3657 52.7903 76.255 51.8357 76.2532C44.0055 76.2386 36.1752 76.2557 28.345 76.2391C24.5928 76.2311 23.5679 75.2164 23.5415 71.5186C23.5171 68.1035 23.4799 64.6868 23.5553 61.2732C23.5897 59.7177 22.9849 59.2567 21.4696 58.879C18.2754 58.0831 15.1558 56.9432 12.0824 55.7472C11.5238 55.5298 11.3307 54.3732 10.9689 53.6502C11.7778 53.5744 12.7866 53.1473 13.3652 53.4764C20.4451 57.504 27.4626 57.3583 34.5666 53.5499C35.1821 53.22 36.1706 53.5858 36.9858 53.6285C36.5552 54.4028 36.3106 55.5783 35.6607 55.8797C33.2617 56.9922 30.7778 58 28.228 58.681C26.6087 59.1135 26.0681 59.7855 26.116 61.393C26.2104 64.5556 26.25 67.7278 26.1071 70.8868C26.009 73.057 26.9649 73.5654 28.9239 73.5495C37.2534 73.4821 45.5837 73.519 53.9138 73.5237C57.5796 73.5257 57.6223 73.5747 57.6416 77.3457C57.6466 78.3219 57.6424 79.2982 57.6424 80.2745C57.9039 80.391 58.1655 80.5076 58.4271 80.6241C59.4863 79.152 60.7022 77.7656 61.566 76.1866C62.7081 74.099 64.2351 73.2776 66.6187 73.4777C69.0174 73.6791 71.4474 73.4747 73.8617 73.5336C75.365 73.5704 75.9232 72.9347 75.9188 71.454C75.8882 61.0415 75.8913 50.6289 75.9157 40.2165C75.9188 38.8834 75.4808 38.2317 74.0507 38.2383C64.472 38.2821 54.8931 38.2829 45.3143 38.3085C45.077 38.3091 44.84 38.4345 44.6222 38.4963C44.522 38.6597 44.4078 38.7852 44.3609 38.9322C44.0147 40.0181 43.6819 41.1084 43.3449 42.1973C42.7075 41.2835 41.994 40.4123 41.4518 39.4451C40.7656 38.2207 40.4847 36.6593 39.5551 35.7048C37.7512 33.8525 37.5117 31.8875 38.0596 29.537C38.3914 28.1136 38.4346 26.623 38.0612 24.7567C36.6768 25.8451 35.2071 26.8433 33.9314 28.047C32.6103 29.2934 31.2782 29.4825 29.5958 28.9353C26.0178 27.7716 22.3567 27.7093 18.7744 28.8405C16.813 29.4599 15.2823 29.2873 13.7782 27.8045C12.6275 26.6702 11.2301 25.7862 9.94244 24.7908C9.71243 24.8984 9.48243 25.006 9.25242 25.1135C9.55834 27.0992 10.0001 29.0771 10.115 31.0737C10.1759 32.1312 9.81769 33.2858 9.38675 34.2834C8.47548 36.3931 7.44954 38.4598 6.34752 40.4768C5.97595 41.1569 5.23241 41.6338 4.65889 42.2035C4.33792 41.4494 3.58284 40.554 3.77406 39.9667C4.45991 37.8602 5.53778 35.885 6.32384 33.806C6.79266 32.5659 7.33731 31.1993 7.24464 29.9338C7.03849 27.1182 6.38632 24.3379 6.0685 21.526C5.98733 20.8078 6.47547 20.0252 6.70205 19.2722C7.34938 19.5264 8.03904 19.7083 8.63187 20.0556C9.1987 20.3876 9.7069 20.8507 10.1685 21.3264C13.7532 25.0205 17.672 27.2549 23.1372 25.456C24.7311 24.9314 26.8089 25.4316 28.5457 25.9019C30.6161 26.4625 32.1687 26.2158 33.7363 24.6803C35.4555 22.9964 37.4026 21.538 39.3096 20.0577C39.8392 19.6465 40.5792 19.5063 41.2227 19.2418C41.489 19.9852 42.0479 20.7608 41.9704 21.4664C41.6522 24.3618 41.1292 27.2342 40.7025 30.1182C40.2258 33.3405 42.1042 35.5177 45.361 35.5196C54.774 35.525 64.1869 35.5134 73.5999 35.5261C77.6308 35.5315 78.4942 36.3725 78.4997 40.3246C78.514 50.6538 78.5137 60.9831 78.4998 71.3124C78.4945 75.2664 77.5475 76.208 73.6622 76.2435C72.8293 76.2511 71.971 76.3768 71.1674 76.2233C66.419 75.3163 63.1683 77.1103 61.2074 81.6788Z" fill="white"/>
<path d="M150.361 77.9256C148.414 78.0023 146.674 78.0023 144.713 78.0023C144.655 76.9839 144.564 76.0948 144.562 75.2055C144.536 64.2079 144.598 53.2092 144.451 42.2134C144.418 39.7387 145.204 38.9198 147.559 39.2464C148.528 39.3808 149.531 39.2686 150.876 39.2686C150.876 43.7002 150.835 47.9251 150.908 52.148C150.924 53.054 151.229 54.6682 151.605 54.7311C153.21 54.9992 154.903 54.897 156.534 54.6899C156.786 54.6579 157.016 53.3763 157.023 52.6701C157.068 48.3511 157.046 44.0313 157.046 39.4852C159.177 39.4852 161.11 39.4852 163.228 39.4852C163.228 52.302 163.228 65.0837 163.228 77.9185C161.189 77.9185 159.296 77.9185 157.062 77.9185C157.062 73.2317 157.066 68.6659 157.061 64.1001C157.057 60.9884 154.612 59.4329 151.731 60.8522C151.233 61.0973 150.941 62.2016 150.928 62.9154C150.858 66.9966 150.922 71.0799 150.891 75.162C150.884 76.0584 150.681 76.9533 150.361 77.9256Z" fill="#181616"/>
<path d="M339.505 41.8604C342.419 46.9906 341.788 53.8371 338.018 58.1619C340.705 59.9967 341.242 62.7791 341.237 65.7828C341.231 69.6743 341.236 73.5658 341.236 77.8036C339.854 77.8036 338.115 77.9625 336.436 77.7103C335.908 77.6308 335.202 76.4683 335.163 75.7691C334.976 72.3652 335.074 68.9459 334.905 65.5404C334.729 61.9975 333.214 60.9779 329.329 61.8097C329.329 67.0197 329.329 72.3016 329.329 77.7119C327.157 77.7119 325.281 77.7119 323.226 77.7119C323.226 64.8691 323.226 52.1033 323.226 39.3081C327.13 39.3081 330.883 39.0671 334.581 39.4174C336.241 39.5748 337.79 40.9144 339.505 41.8604ZM333.932 54.5515C334.248 52.7142 334.827 50.8764 334.824 49.0396C334.818 45.3117 333.401 44.3979 329.301 45.2949C329.301 48.0363 329.376 50.835 329.274 53.6272C329.209 55.4016 330.059 55.8304 331.552 55.5283C332.265 55.384 332.942 55.0606 333.932 54.5515Z" fill="#191616"/>
<path d="M206.389 54.0982C206.385 49.69 206.437 45.5306 206.349 41.3742C206.316 39.7796 206.794 39.1089 208.464 39.1874C211.534 39.3318 214.628 39.1477 217.68 39.4365C221.978 39.8433 224.632 42.4556 224.748 46.7646C224.958 54.5747 224.969 62.3977 224.777 70.2083C224.666 74.7403 221.959 77.4276 217.42 77.8386C214.283 78.1227 211.106 77.9376 207.948 78.0141C206.24 78.0555 206.418 76.8836 206.416 75.8046C206.404 68.6525 206.398 61.5004 206.389 54.0982ZM218.676 54.3555C218.674 52.7745 218.7 51.1928 218.664 49.6125C218.568 45.4238 217.237 44.4404 212.965 45.3851C212.965 54.2358 212.965 63.09 212.965 71.912C217.51 72.5842 218.639 71.6655 218.675 67.335C218.71 63.1746 218.679 59.0137 218.676 54.3555Z" fill="#141416"/>
<path d="M348.73 45.4205C348.792 45.0421 348.821 44.8783 348.851 44.7146C349.952 38.6957 350.707 38.1349 356.873 39.1318C357.49 39.2315 358.382 40.0146 358.48 40.5931C360.541 52.7914 362.507 65.006 364.541 77.521C362.388 77.521 360.459 77.521 358.252 77.521C357.984 75.8562 357.623 73.999 357.403 72.1254C357.247 70.8092 356.689 70.1474 355.32 70.3028C355.074 70.3307 354.821 70.306 354.572 70.3036C350.649 70.2673 350.649 70.2672 350.009 74.1206C349.31 78.3332 349.292 78.344 343.571 77.5392C345.28 66.9022 346.989 56.2686 348.73 45.4205ZM355.93 61.5792C355.302 57.2195 354.675 52.8598 354.047 48.5001C353.869 48.4967 353.691 48.4933 353.514 48.4899C352.786 53.8298 352.059 59.1697 351.315 64.6292C353.141 64.6292 354.585 64.6292 356.218 64.6292C356.139 63.6263 356.074 62.8151 355.93 61.5792Z" fill="#141416"/>
<path d="M229.71 61.4186C230.905 53.9897 232.076 46.7774 233.276 39.386C236.079 39.386 238.775 39.386 241.808 39.386C243.882 52.0549 245.969 64.8031 248.095 77.7878C245.883 77.7878 244.016 77.7878 241.805 77.7878C241.432 75.5465 241.044 73.2104 240.592 70.492C238.807 70.492 237.004 70.3925 235.225 70.556C234.727 70.6018 234.2 71.3622 233.874 71.9074C233.64 72.2991 233.733 72.8799 233.658 73.373C232.881 78.4897 232.88 78.4895 227.083 77.6976C227.951 72.3425 228.818 66.9887 229.71 61.4186ZM235.995 56.0634C235.617 58.9179 235.24 61.7724 234.846 64.7504C236.623 64.7504 238.121 64.7504 239.88 64.7504C239.089 59.2597 238.335 54.0248 237.582 48.7899C237.394 48.7944 237.207 48.7989 237.02 48.8035C236.706 51.0781 236.392 53.3528 235.995 56.0634Z" fill="#141416"/>
<path d="M265.488 76.3564C261.924 78.9987 258.188 79.1503 254.487 77.4198C250.923 75.7527 250.164 72.3974 250.162 68.7985C250.158 61.8852 250.085 54.971 250.174 48.0589C250.265 40.9408 254.805 37.4363 261.77 38.9326C264.935 39.6125 267.057 41.4989 267.686 44.6384C268.17 47.0515 268.172 49.5611 268.409 52.274C266.183 52.274 264.331 52.274 262.2 52.274C262.2 51.0719 262.225 49.9285 262.194 48.7866C262.142 46.8113 262.073 44.7739 259.422 44.5512C257.451 44.3857 256.454 45.7757 256.425 48.8228C256.375 53.9865 256.414 59.151 256.422 64.3151C256.425 65.8973 256.381 67.4838 256.479 69.0607C256.596 70.9372 257.124 72.6486 259.483 72.5382C261.658 72.4365 262.132 70.8063 262.187 69.0152C262.243 67.2072 262.199 65.3961 262.199 63.4413C264.277 63.4413 266.074 63.4413 268.207 63.4413C268.066 67.9284 269.121 72.4849 265.488 76.3564Z" fill="#141416"/>
<path d="M299.709 64.8545C299.795 65.2969 299.858 65.5357 299.92 65.7746C300.066 65.7973 300.211 65.82 300.357 65.8427C300.764 63.0514 301.196 60.2634 301.574 57.4681C302.277 52.2731 303.117 47.0881 303.556 41.87C303.757 39.4853 304.689 38.8548 306.811 39.0994C307.693 39.2011 308.597 39.1163 309.811 39.1163C309.224 43.2065 308.707 46.9708 308.139 50.7275C306.871 59.1179 305.52 67.4963 304.344 75.8995C304.113 77.553 303.476 77.9866 301.964 77.9171C299.975 77.8257 297.978 77.8946 295.713 77.8946C293.76 65.0694 291.822 52.3502 289.844 39.365C292.023 39.365 293.963 39.365 296.239 39.365C297.378 47.7185 298.532 56.1848 299.709 64.8545Z" fill="#141416"/>
<path d="M192.812 51.1146C192.83 54.9259 192.83 54.9261 196.28 54.9273C197.764 54.9278 199.248 54.9273 200.555 54.9273C200.828 55.3049 200.989 55.4259 201.003 55.5614C201.505 60.6605 201.503 60.6606 196.512 60.6689C192.823 60.675 192.773 60.676 192.841 64.2517C192.889 66.7941 192.182 70.1531 193.506 71.6265C194.659 72.9106 198.182 72.064 200.658 72.1631C201.397 72.1927 202.135 72.2363 203.071 72.2834C203.071 74.1713 203.071 75.949 203.071 77.8801C197.635 77.8801 192.263 77.8801 186.63 77.8801C186.566 77.0639 186.45 76.2653 186.448 75.4664C186.423 64.2339 186.453 53.001 186.361 41.769C186.345 39.8441 186.835 39.1174 188.865 39.1761C193.51 39.3105 198.161 39.2186 203.028 39.2186C203.028 41.194 203.028 42.9714 203.028 45.0038C199.755 45.0038 196.467 45.0038 192.812 45.0038C192.812 47.1155 192.812 48.9885 192.812 51.1146Z" fill="#1F1916"/>
<path d="M281.058 45.7753C279.871 45.382 278.647 45.0784 277.412 45.0229C275.357 44.9308 273.294 44.9978 271.062 44.9978C271.062 43.018 271.062 41.3124 271.062 39.3677C276.694 39.3677 282.294 39.3677 288.519 39.3677C288.227 41.783 288.385 44.347 287.565 46.5458C284.746 54.099 281.584 61.5237 278.557 68.9994C278.221 69.8301 277.917 70.6737 277.381 72.0811C280.045 72.0811 282.319 72.0824 284.593 72.0809C288.388 72.0782 288.391 72.0775 288.324 75.8704C288.314 76.4423 288.262 77.0135 288.21 77.9163C282.573 77.9163 277.031 77.9424 271.49 77.8599C271.105 77.8542 270.383 77.0179 270.411 76.6089C270.558 74.4819 270.498 72.2155 271.24 70.2764C274.357 62.1224 277.734 54.0676 281.058 45.7753Z" fill="#1D1816"/>
<path d="M369.286 61.5984C369.286 55.9571 369.286 50.5657 369.286 44.8835C367.532 44.8835 366.13 44.8282 364.735 44.8996C363.425 44.9666 363.04 44.3989 362.972 43.1402C362.75 39.056 362.703 39.0585 366.678 39.055C371.007 39.0513 375.341 39.1543 379.666 39C381.91 38.92 382.081 40.0708 381.99 41.7747C381.907 43.3296 382.371 45.1314 379.752 44.8793C378.523 44.761 377.273 44.859 375.763 44.859C375.763 55.8558 375.763 66.6398 375.763 77.601C373.538 77.601 371.585 77.601 369.286 77.601C369.286 72.2777 369.286 67.0631 369.286 61.5984Z" fill="#1D1816"/>
<path d="M173.926 50.0985C173.936 56.7631 174.024 63.179 173.911 69.5913C173.874 71.7133 174.603 72.3612 176.64 72.2273C178.942 72.0758 181.262 72.1923 183.734 72.1923C183.734 74.2413 183.734 76.034 183.734 77.9333C178.437 77.9333 173.294 77.9333 167.887 77.9333C167.887 65.1226 167.887 52.3675 167.887 39.4266C169.778 39.4266 171.65 39.4266 173.926 39.4266C173.926 42.9018 173.926 46.3751 173.926 50.0985Z" fill="#141416"/>
<path d="M318.748 51.0984C318.748 60.0753 318.748 68.8021 318.748 77.8662C316.935 77.8662 315.263 78.0491 313.675 77.7632C313.146 77.668 312.491 76.3781 312.476 75.6229C312.368 70.1342 312.409 64.6425 312.403 59.1518C312.397 53.4114 312.518 47.6669 312.326 41.9328C312.245 39.5038 313.131 38.8337 315.328 39.0789C316.372 39.1955 317.441 39.0989 318.748 39.0989C318.748 43.2223 318.748 47.0353 318.748 51.0984Z" fill="#1F1916"/>
<path d="M108.496 35.0978C108.496 23.4073 108.496 11.9668 108.496 0C110.083 1.6534 110.474 97.032 109.416 99.9981C109.333 99.9982 109.249 100.003 109.166 99.9968C109.087 99.9907 108.97 100.001 108.938 99.9555C108.801 99.76 108.583 99.5471 108.583 99.3402C108.543 78.0094 108.52 56.6786 108.496 35.0978Z" fill="#141416"/>
<path d="M66.0142 65.6401C63.6844 65.692 61.9188 64.979 60.8493 63.0137C59.4144 60.3771 60.4764 56.9214 63.0461 55.7691C65.8574 54.5085 69.2765 55.8029 70.3268 58.5253C71.5444 61.6813 69.845 64.6004 66.0142 65.6401ZM62.9941 60.7756C63.8358 61.5105 64.5952 62.6423 65.5481 62.8398C66.1763 62.9698 67.4524 61.9082 67.7839 61.1087C68.3711 59.6931 67.593 58.4769 66.0852 58.1041C64.2836 57.6586 63.2862 58.6015 62.9941 60.7756Z" fill="white"/>
<path d="M328.17 36.3379C326.756 34.3942 325.469 32.5925 324.04 30.5925C327.228 29.5734 329.609 30.1981 331.295 32.7558C335.203 29.8215 335.203 29.8215 338.51 30.4523C336.907 35.8907 333.421 37.9481 328.17 36.3379Z" fill="#141416"/>
<path d="M47.4388 55.7297C49.3647 55.8467 51.3635 55.5629 52.8069 56.3276C55.2993 57.648 55.6705 61.2817 53.985 63.5341C52.1479 65.9892 48.6378 66.3736 46.2784 64.3782C44.0769 62.5163 43.8197 59.2625 45.7444 57.0578C46.1707 56.5694 46.7519 56.2163 47.4388 55.7297ZM51.5283 58.6684C50.4026 58.6221 48.8764 58.117 48.2605 58.6547C47.6055 59.2265 47.373 61.0026 47.787 61.8441C48.1013 62.4829 49.8759 62.9509 50.7219 62.6663C52.491 62.0709 52.5657 60.532 51.5283 58.6684Z" fill="white"/>
<path d="M253.434 33.4064C252.779 32.4481 252.233 31.6354 251.562 30.6392C254.667 29.7777 257.15 30.1057 258.727 32.9336C262.484 29.9465 262.484 29.9465 266.484 30.5756C264.472 32.7848 263.944 36.1168 260.873 36.8815C257.817 37.6428 254.924 36.9912 253.434 33.4064Z" fill="#141416"/>
<path d="M24.8919 49.3461C22.089 49.2018 18.9478 45.1228 19.6683 42.7107C19.8604 42.0677 20.4663 41.4903 21.0078 41.0308C21.3531 40.7378 21.9314 40.5892 22.4019 40.5965C24.4737 40.6285 26.8643 39.8156 28.195 42.2353C29.0674 43.8219 27.4666 47.2322 24.8919 49.3461ZM23.6706 46.2282C24.3798 45.4368 25.089 44.6454 26.1546 43.4565C24.4073 43.4565 23.4383 43.4565 22.1795 43.4565C22.7106 44.5127 23.0772 45.2418 23.6706 46.2282Z" fill="white"/>
<path d="M314.774 32.099C315.48 30.3373 316.742 30.0569 318.287 30.159C319.666 30.2502 321.057 30.1782 322.61 30.1782C319.331 35.9041 316.766 37.4883 312.207 36.5182C313.063 35.0429 313.872 33.6482 314.774 32.099Z" fill="#141416"/>
<path d="M10.7358 47.5565C8.57225 47.5694 6.40865 47.5923 4.24507 47.5916C2.69137 47.5912 0.191172 48.5832 0.00966513 46.546C-0.181455 44.4011 2.50837 45.1819 3.95762 44.8915C5.81341 44.5195 7.73102 44.3462 9.62486 44.3231C10.4888 44.3126 11.3597 44.8667 12.2274 45.1647C11.6731 45.8572 11.1188 46.5497 10.6452 47.4086C10.7258 47.575 10.7358 47.5565 10.7358 47.5565Z" fill="white"/>
<path d="M37.2366 47.5829C37.0318 47.3227 36.7978 47.0802 36.6288 46.7986C36.3228 46.2885 35.7321 45.6527 35.8569 45.2584C36.0014 44.802 36.8116 44.2279 37.2951 44.2607C40.4319 44.4741 43.5671 44.7781 46.6792 45.2186C47.1516 45.2855 47.5016 46.2167 47.9082 46.7482C47.3324 47.1035 46.7458 47.7792 46.1824 47.7605C43.295 47.6643 40.4135 47.3893 37.3746 47.3748C37.2192 47.5729 37.2366 47.5829 37.2366 47.5829Z" fill="white"/>
<path d="M10.721 47.58C11.1579 47.6421 11.6309 47.6247 12.0422 47.7756C12.5421 47.959 13.245 48.1882 13.3903 48.5744C13.543 48.9805 13.3073 49.8364 12.9542 50.0807C10.2959 51.9201 7.59197 53.6989 4.8292 55.3763C4.46067 55.6 3.68148 55.1473 3.09247 55.0078C3.28721 54.3661 3.27862 53.4531 3.71131 53.1287C5.76732 51.5872 7.94917 50.2142 10.0711 48.7593C10.4022 48.5323 10.6553 48.1916 10.8421 47.73C10.7399 47.5566 10.7298 47.575 10.721 47.58Z" fill="white"/>
<path d="M37.2127 47.564C37.6771 48.1127 38.0575 48.7959 38.6326 49.2056C40.5308 50.558 42.548 51.7474 44.4049 53.1509C44.8348 53.4759 44.81 54.4025 44.9945 55.0523C44.3276 55.1469 43.474 55.5536 43.0246 55.2847C40.3821 53.7035 37.8063 52.0044 35.281 50.2406C34.8563 49.944 34.7874 49.1379 34.554 48.5672C35.3585 48.3452 36.1631 48.1231 37.1014 47.7421C37.2352 47.583 37.2178 47.5731 37.2127 47.564Z" fill="white"/>
</svg>
